# xmcd CD database file
#
# Track frame offsets:
#	150
#	21835
#	40608
#	55104
#	84277
#	99891
#	117905
#	142777
#	166907
#	188435
#	205442
#	227322
#	245611
#	262364
#
# Disc length: 3728 seconds
#
# Revision: 0
# Processed by: cddbd v1.5.2PL0 Copyright (c) Steve Scherf et al.
# Submitted via: CDex 1.70beta2
#
DISCID=a90e8e0e
DTITLE=John Lee Hooker - Chill Out
DYEAR=2007
DGENRE=Blues
TTITLE0=Chill Out (Things Gonna Change) feat. Carlos Santa
TTITLE1=Deep Blue Sea
TTITLE2=Kiddio
TTITLE3=Medley Serves Me Right To Suffer - Syndicator feat. Van Morrison
TTITLE4=One Bourbon, One Scotch, One Beer
TTITLE5=Tupelo
TTITLE6=Women On Mind
TTITLE7=Annie Mae
TTITLE8=Too Young
TTITLE9=Talkin' The Blues
TTITLE10=If Youve Never Been In Love
TTITLE11=We'll Meet Again
TTITLE12=Down So Long
TTITLE13=Fire Down Below
EXTD=YEAR: 2007
EXTT0=
EXTT1=
EXTT2=
EXTT3=
EXTT4=
EXTT5=
EXTT6=
EXTT7=
EXTT8=
EXTT9=
EXTT10=
EXTT11=
EXTT12=
EXTT13=
PLAYORDER=
